<svg xmlns="http://www.w3.org/2000/svg" xmlns:xlink="http://www.w3.org/1999/xlink" version="1.1" x="0px" y="0px" viewBox="0 0 512 640" style="enable-background:new 0 0 512 512;" xml:space="preserve"><path d="M373.3903809,15.4516602h-0.4052734c-26.9414062,0-48.8598633,21.9179688-48.8598633,48.859375v106.6071777  c-8.0928955-5.9448242-18.071228-9.4665527-28.8603516-9.4665527h-0.4047852  c-15.8337402,0-29.9257812,7.5760498-38.8598633,19.2875977c-8.934082-11.7115479-23.0263672-19.2875977-38.8603516-19.2875977  h-0.4047852c-10.7890625,0-20.7674561,3.5217285-28.8603516,9.4665527v-50.6071777  c0-26.9414062-21.918457-48.859375-48.8598633-48.859375h-0.4052734c-26.9414062,0-48.8598633,21.9179688-48.8598633,48.859375  v172.2919922c0,0.4455566,0.0393066,0.8809814,0.0957031,1.3110352v36.4321289  c0,44.2216797,17.3354492,85.9111328,48.8134766,117.3886719c31.4775391,31.4775391,73.1674805,48.8134766,117.3891602,48.8134766  s85.9111328-17.3359375,117.3886719-48.8134766c31.4780273-31.4775391,48.8134766-73.1669922,48.8134766-117.3886719v-37.7431641  v-23.5917969V64.3110352C422.2502441,37.3696289,400.3317871,15.4516602,373.3903809,15.4516602z M344.1252441,64.3110352  c0-15.9130859,12.9462891-28.859375,28.8598633-28.859375h0.4052734c15.9135742,0,28.8598633,12.9462891,28.8598633,28.859375  v204.7001953v7.3881836c-14.2681885-16.364502-34.9662476-26.9678955-58.125-27.8283691v-13.4621582v-24.7978516V64.3110352z   M294.8601074,181.4516602h0.4047852c15.9135742,0,28.8603516,12.9462891,28.8603516,28.859375v24.7978516v13.5390625h-46.4614258  c-4.0196533,0-7.9237061,0.4978027-11.6635742,1.4174805v-39.7543945  C266.0002441,194.3979492,278.9465332,181.4516602,294.8601074,181.4516602z M216.7351074,181.4516602h0.4047852  c15.9135742,0,28.8603516,12.9462891,28.8603516,28.859375v50.0292969  c-9.0211182,7.6964111-15.2104492,18.6064453-16.7867432,30.9445801c-3.7740479,1.7541504-7.8989258,2.6843262-12.0736084,2.6843262  h-0.4047852c-15.9135742,0-28.8603516-12.9462891-28.8603516-28.8603516v-2.5058594v-52.2919922  C187.8747559,194.3979492,200.8215332,181.4516602,216.7351074,181.4516602z M402.2502441,330.3461914  c0,38.8798828-15.2553711,75.546875-42.9555664,103.2470703s-64.3676758,42.9550781-103.2470703,42.9550781  s-75.5463867-15.2548828-103.246582-42.9550781s-42.9555664-64.3671875-42.9555664-103.2470703v-61.3349609  c0-0.4455566-0.0393066-0.8809814-0.0957031-1.3110352V120.3110352c0-15.9130859,12.9462891-28.859375,28.8598633-28.859375  h0.4052734c15.9135742,0,28.8598633,12.9462891,28.8598633,28.859375v90v52.2919922v2.5058594  c0,26.9414062,21.918457,48.8603516,48.8603516,48.8603516h0.4047852c4.6625977,0,9.2854004-0.6982422,13.7318115-2.0072021  c6.0506592,20.1134033,24.7332764,34.8109131,46.7921143,34.8109131h8.2822266  c-16.440918,13.6031494-28.0727539,33.1174316-31.3134766,55.8574219  c-0.7792969,5.4677734,3.0214844,10.5322266,8.4887695,11.3115234c0.4790039,0.0673828,0.9541016,0.1005859,1.4238281,0.1005859  c4.8974609,0,9.1762695-3.6005859,9.887207-8.5898438c4.5029297-31.5952148,29.9069824-55.1574707,60.2194214-58.6796875h0.8098755  c0.80896,0,1.5913086-0.1064453,2.3446045-0.2878418c4.7495117-0.3294678,9.6011353-0.1789551,14.5006104,0.5202637  c5.46875,0.765625,10.53125-3.0234375,11.3105469-8.4892578c0.7792969-5.4677734-3.0214844-10.5322266-8.4892578-11.3115234  c-7.2983398-1.0385742-14.5178223-1.1486816-21.5429688-0.4316406h-55.9213867  c-15.9135742,0-28.8603516-12.9462891-28.8603516-28.8603516v-0.4052734c0-15.9130859,12.9467773-28.859375,28.8603516-28.859375  h64.7978516c0.4263916,0,0.84375-0.0354004,1.2561035-0.0872803c32.5095215,1.3884277,58.5324707,28.2596436,58.5324707,61.1048584  V330.3461914z"/><text x="0" y="527" fill="#000000" font-size="5px" font-weight="bold" font-family="'Helvetica Neue', Helvetica, Arial-Unicode, Arial, Sans-serif">Created by chappara</text><text x="0" y="532" fill="#000000" font-size="5px" font-weight="bold" font-family="'Helvetica Neue', Helvetica, Arial-Unicode, Arial, Sans-serif">from the Noun Project</text></svg>